<svg xmlns="http://www.w3.org/2000/svg" width="135.421" height="92.176" viewBox="0 0 135.421 92.176"><defs><style>.a{fill:#fff;}.b,.c{stroke:none;}.c{fill:#f5f6f7;}</style></defs><g transform="translate(-892.627 -340.691)"><path d="M5655.233,122.053h16.98l31.666-61,9.276,15.363-21.668,45.636h61.964l-22.169-45.636,9.08-15.363,33.5,61h16.792l-50.292-92.176-18.471,31.177-18.012-31.177Z" transform="translate(-4762.606 310.815)"/><g class="a" transform="translate(952.598 401.027)"><path class="b" d="M 14.40182018280029 18.76328468322754 L 0.7336307764053345 18.76328468322754 L 7.567725658416748 1.367435932159424 L 14.40182018280029 18.76328468322754 Z"/><path class="c" d="M 7.567725658416748 2.734832763671875 L 1.467251777648926 18.26328468322754 L 13.66819953918457 18.26328468322754 L 7.567725658416748 2.734832763671875 M 7.567725658416748 3.814697265625e-06 L 15.13545608520508 19.26328468322754 L -4.76837158203125e-06 19.26328468322754 L 7.567725658416748 3.814697265625e-06 Z"/></g><g class="a" transform="translate(952.598 401.027)"><path class="b" d="M 14.40182018280029 18.76328468322754 L 0.7336307764053345 18.76328468322754 L 7.567725658416748 1.367435932159424 L 14.40182018280029 18.76328468322754 Z"/><path class="c" d="M 7.567725658416748 2.734832763671875 L 1.467251777648926 18.26328468322754 L 13.66819953918457 18.26328468322754 L 7.567725658416748 2.734832763671875 M 7.567725658416748 3.814697265625e-06 L 15.13545608520508 19.26328468322754 L -4.76837158203125e-06 19.26328468322754 L 7.567725658416748 3.814697265625e-06 Z"/></g></g></svg>